<?xml version="1.0" encoding="UTF-8" standalone="no"?>
<!DOCTYPE svg PUBLIC "-//W3C//DTD SVG 1.1//EN" "http://www.w3.org/Graphics/SVG/1.1/DTD/svg11.dtd">
<svg width="100%" height="100%" viewBox="0 0 490 453" version="1.1" xmlns="http://www.w3.org/2000/svg" xmlnsXlink="http://www.w3.org/1999/xlink" xmlSpace="preserve" xmlnsSerif="http://www.serif.com/" style="fill-rule:evenodd;clip-rule:evenodd;stroke-linejoin:round;stroke-miterlimit:2;">
    <g transform="matrix(1,0,0,1,-13.2582,-1366.82)">
        <g transform="matrix(1,0,0,1,2.25823,1334.12)">
            <g transform="matrix(1,0,0,-1,5.68434e-14,465.13)">
                <g transform="matrix(0.195083,-6.57452e-18,6.57452e-18,0.195083,197.942,211.919)">
                    <circle cx="297.608" cy="255.914" r="107.047" style="fill:rgb(33,150,243);"/>
                </g>
                <g transform="matrix(-0.751052,0,0,0.751052,479.519,-131.594)">
                    <path d="M297.608,148.867C356.689,148.867 404.655,196.833 404.655,255.914C404.655,314.995 311.16,453.662 297.608,453.662C284.055,453.662 190.561,314.995 190.561,255.914C190.561,196.833 238.527,148.867 297.608,148.867Z" style="fill:rgb(76,175,80);"/>
                </g>
                <g transform="matrix(0.277213,0.480148,-0.480148,0.277213,451.057,-34.6047)">
                    <path d="M297.608,148.867C356.689,148.867 404.655,196.833 404.655,255.914C404.655,314.995 311.16,453.662 297.608,453.662C284.055,453.662 190.561,314.995 190.561,255.914C190.561,196.833 238.527,148.867 297.608,148.867Z" style="fill:rgb(255,236,179);"/>
                </g>
                <g transform="matrix(-0.377258,2.49372e-16,-2.49372e-16,-0.377258,368.275,488.595)">
                    <path d="M297.608,148.867C356.689,148.867 404.655,196.833 404.655,255.914C404.655,314.995 311.16,453.662 297.608,453.662C284.055,453.662 190.561,314.995 190.561,255.914C190.561,196.833 238.527,148.867 297.608,148.867Z" style="fill:rgb(200,230,201);"/>
                </g>
                <g transform="matrix(-0.277213,0.480148,0.480148,0.277213,61.2244,-34.6047)">
                    <path d="M297.608,148.867C356.689,148.867 404.655,196.833 404.655,255.914C404.655,314.995 311.16,453.662 297.608,453.662C284.055,453.662 190.561,314.995 190.561,255.914C190.561,196.833 238.527,148.867 297.608,148.867Z" style="fill:rgb(255,160,0);"/>
                </g>
                <g transform="matrix(-0.375526,-0.65043,0.65043,-0.375526,36.7043,632.115)">
                    <path d="M297.608,148.867C356.689,148.867 404.655,196.833 404.655,255.914C404.655,314.995 311.16,453.662 297.608,453.662C284.055,453.662 190.561,314.995 190.561,255.914C190.561,196.833 238.527,148.867 297.608,148.867Z" style="fill:rgb(76,175,80);"/>
                </g>
                <g transform="matrix(0.375526,-0.65043,-0.65043,-0.375526,475.296,632.115)">
                    <path d="M297.608,148.867C356.689,148.867 404.655,196.833 404.655,255.914C404.655,314.995 311.16,453.662 297.608,453.662C284.055,453.662 190.561,314.995 190.561,255.914C190.561,196.833 238.527,148.867 297.608,148.867Z" style="fill:rgb(46,125,50);"/>
                </g>
            </g>
        </g>
    </g>
</svg>
